<?xml version="1.0" standalone="no"?><!DOCTYPE svg PUBLIC "-//W3C//DTD SVG 1.1//EN" "http://www.w3.org/Graphics/SVG/1.1/DTD/svg11.dtd"><svg t="1587101211142" class="icon" viewBox="0 0 1036 1024" version="1.1" xmlns="http://www.w3.org/2000/svg" p-id="1897" xmlns:xlink="http://www.w3.org/1999/xlink" width="1036" height="1024"><defs><style type="text/css"></style></defs><path d="M377.472 9.728h136.064c0.448 63.136 0.256 126.272 0.352 189.44 86.016 2.24 172.128 0.256 258.144 0.992 0 49.408 0.352 98.848-0.192 148.16-85.92 1.888-171.84-1.248-257.792 1.696 0.256 139.744-3.776 279.296-1.888 419.04 17.76 10.496 5.216 36.512 8.864 53.728 7.456 5.568 14.784 11.488 21.888 17.568 15.872 2.88 31.936 3.68 48 4.128 49.056-86.208 100.096-171.328 148.16-258.048-51.84-30.752-104.576-59.904-156.512-90.496 19.008-30.688 35.264-62.976 54.816-93.376 51.392 31.744 104.48 60.64 156.416 91.584 22.24-39.456 43.872-79.392 68.256-117.6 29.696 15.52 58.016 33.376 87.36 49.6-22.336 40.192-47.008 79.008-67.904 120 52.928 27.264 103.68 58.656 155.168 88.352-17.408 31.2-35.328 62.08-53.536 92.832-51.744-30.048-103.68-59.744-155.36-89.952-44.928 77.216-88.96 154.912-134.464 231.776 43.776 10.944 85.568 31.2 119.904 60.736 23.488 15.872 35.168 44.128 31.488 72.032a376.8 376.8 0 0 0-45.728-2.432c-247.648 0.352-495.296-0.192-742.912 0.352-1.888-2.432-5.664-7.36-7.616-9.792 10.4-63.328 75.264-92.288 128.608-112.64a534.656 534.656 0 0 1 157.696-33.824c13.376-10.848 26.816-21.984 42.688-29.152 0.192-155.264-0.096-310.592 0.096-465.856-83.776-0.352-167.552 1.088-251.328-0.096-1.248-49.504-4.576-99.84 1.152-148.992 83.424 1.344 166.816-0.256 250.144 1.088-0.192-63.584 0-127.168-0.096-190.88z" p-id="1898"></path></svg>