<svg viewBox="0 0 1024 1024" version="1.1" xmlns="http://www.w3.org/2000/svg">
  <path d="M998.826667 468.48c-1.28-8.96-2.986667-14.506667-2.986667-14.506667s-3.413333 4.266667-9.386667 11.946667c-1.706667-21.76-5.546667-43.52-11.52-64.426667-7.68-26.453333-17.493333-52.053333-29.866666-76.373333-7.68-16.213333-16.64-32-27.306667-46.506667-5.546667-8.533333-10.24-14.933333-11.093333-16.213333-18.346667-29.866667-38.826667-47.786667-63.146667-81.92-15.36-26.026667-26.026667-55.04-31.146667-84.906667-6.826667 17.92-11.946667 36.693333-15.36 55.466667-24.32-24.746667-46.08-42.666667-58.88-54.613333C674.133333 36.693333 681.813333 5.973333 681.813333 5.973333s-119.466667 133.12-67.84 271.786667c17.92 46.933333 48.64 88.32 89.173334 118.613333 49.92 40.96 103.68 73.386667 131.84 156.586667a262.698667 262.698667 0 0 0-99.413334-105.386667c12.8 30.293333 19.2 62.293333 18.773334 95.146667 0 124.586667-101.12 225.706667-226.133334 225.706667-16.64 0-33.706667-1.706667-49.92-5.546667-19.626667-3.84-38.4-10.24-55.893333-19.2-26.453333-15.786667-49.493333-36.693333-67.413333-61.866667v-0.426666c2.133333 0.853333 3.413333 1.28 3.84 1.28 9.386667 3.413333 18.773333 5.973333 28.586666 7.68 38.4 8.106667 78.08 3.413333 113.493334-13.226667 35.84-20.053333 57.6-34.56 75.093333-29.013333 17.493333 5.546667 30.72-11.093333 18.773333-28.586667-21.333333-27.733333-56.32-40.96-90.453333-34.986667-35.84 5.12-68.693333 30.293333-115.2 5.973334-3.413333-1.706667-5.973333-3.413333-8.96-5.12-2.986667-2.133333 10.24 2.56 6.826667 0.426666-10.24-5.12-20.053333-10.666667-29.44-17.493333-0.426667-0.426667 7.253333 2.133333 6.4 1.706667-11.946667-8.106667-22.613333-18.773333-30.72-31.146667-8.106667-14.933333-8.96-33.28-2.133334-49.066667 4.693333-8.106667 11.093333-14.08 19.2-17.92 5.973333 2.986667 9.813333 5.12 9.813334 5.12s-2.986667-5.12-4.266667-7.68c0.426667-0.426667 0.853333 0 1.706667-0.426666 5.12 2.133333 16.64 8.106667 23.04 11.946666 4.266667 2.133333 7.68 5.546667 10.666666 9.386667 0 0 2.133333-0.853333 0.426667-5.546667a26.026667 26.026667 0 0 0-11.093333-13.226666h0.853333c4.693333 2.56 8.96 5.12 13.226667 8.533333 3.84-9.386667 5.973333-18.773333 5.546666-28.586667a38.357333 38.357333 0 0 0-2.133333-15.786666c-1.706667-3.413333 0.853333-4.693333 3.84-1.28a27.136 27.136 0 0 0-2.56-7.68s1.706667-2.56 2.56-2.986667c2.133333-2.133333 4.266667-4.266667 6.826667-5.546667 14.933333-9.386667 30.293333-17.493333 46.506666-23.893333 13.226667-5.546667 23.893333-10.24 26.026667-11.52 3.413333-2.133333 6.4-4.266667 9.386667-6.826667 11.093333-9.386667 18.346667-22.186667 20.906666-36.266666 0.426667-2.133333 0.426667-3.84 0.426667-5.546667v-3.413333c-1.706667-7.253333-14.08-12.373333-78.506667-18.773334-22.613333-3.413333-40.96-20.48-46.08-43.093333v0.426667c-0.853333 2.133333-1.706667 4.693333-2.56 7.253333 0.853333-2.56 1.706667-4.693333 2.56-7.253333V268.8c12.373333-32 34.56-59.733333 63.146667-78.506667 1.706667-1.28-6.4 0.426667-4.693333-0.853333 5.12-2.56 10.666667-5.12 16.64-7.253333 2.986667-0.853333-12.373333-6.826667-26.026667-5.546667-8.106667 0.426667-16.213333 2.56-23.893333 5.546667 3.413333-2.56 12.8-5.973333 10.666666-5.973334-17.493333 2.986667-34.133333 9.386667-49.066666 18.346667 0-1.706667 0.426667-2.986667 0.853333-4.266667-11.946667 5.12-22.613333 13.226667-30.293333 23.466667v-5.546667c-5.546667 4.266667-10.24 8.96-14.933334 14.08h-0.426666c-35.413333-13.653333-73.813333-17.066667-111.36-9.386666l-0.426667-0.426667h0.426667c-7.68-5.973333-14.506667-13.653333-19.626667-22.186667l-0.426667 0.426667-0.853333-0.853333c-2.56-3.413333-4.693333-7.68-7.253333-12.373334-2.133333-2.986667-3.84-6.826667-5.973334-10.666666 0 0 0-0.426667-0.426666-0.426667s-1.28 3.84-1.706667 2.56c-6.4-17.066667-9.813333-35.413333-8.96-53.333333h-0.426667c-10.666667 7.253333-18.773333 17.493333-22.613333 29.866666-2.133333 4.266667-3.413333 6.4-4.693333 8.96v-1.28l1.28-6.4c-0.426667 0.426667-0.426667 0.853333-0.853334 1.28-2.986667 3.413333-5.546667 7.253333-7.68 11.52-2.133333 3.84-3.84 8.106667-5.12 12.373334v-2.133334c0-1.706667 0.426667-4.266667 0-3.413333l-0.426666 1.28c-13.653333 30.293333-22.613333 62.72-25.6 96-0.853333 5.973333-0.853333 11.52-0.853334 17.066667v0.853333c-9.813333 10.666667-18.346667 22.186667-26.026666 34.56-24.746667 41.813333-43.093333 87.04-54.613334 134.4 8.106667-17.92 17.92-35.413333 29.44-51.626667a471.466667 471.466667 0 0 0-33.28 174.506667c3.84-17.493333 8.533333-34.56 14.08-51.626667-3.413333 70.4 10.24 140.8 39.68 205.226667 39.68 88.746667 105.386667 163.413333 189.013334 213.76 33.706667 23.04 70.826667 40.96 109.653333 52.906667 5.12 1.706667 10.666667 3.84 15.786667 5.546666-1.706667-0.853333-2.986667-1.706667-4.693334-2.133333 46.08 13.653333 94.293333 20.906667 142.506667 20.906667 171.093333 0 227.413333-65.28 232.96-71.68 8.106667-7.68 15.36-16.64 20.053333-27.306667 3.413333-1.28 6.4-2.56 9.813334-4.266667l2.133333-0.853333c2.56-1.28 3.84-1.706667 3.84-1.706667a362.666667 362.666667 0 0 0 72.533333-45.226666c33.28-23.893333 56.746667-58.88 66.986667-98.56 6.4-14.506667 6.4-30.293333 1.28-45.226667 2.56-4.266667 4.693333-8.106667 5.12-8.96a402.858667 402.858667 0 0 0 60.586667-195.84v-5.973333c0-14.506667-1.28-29.44-3.84-43.946667z" p-id="2069"></path>
</svg>